HIERARCHY
ROOT Hips
{
  OFFSET 0.000000 0.000000 0.000000
  CHANNELS 6 Xposition Yposition Zposition Xrotation Yrotation Zrotation
  JOINT Spine
  {
    OFFSET 1.388230 22.849755 -8.157144
    CHANNELS 3 Xrotation Yrotation Zrotation
    JOINT Chest
    {
      OFFSET 1.388230 22.849755 -8.157144
      CHANNELS 3 Xrotation Yrotation Zrotation
      JOINT Neck
      {
        OFFSET 0.386562 8.498444 -3.690407
        CHANNELS 3 Xrotation Yrotation Zrotation
        JOINT Head
        {
          OFFSET 0.662911 7.396516 -7.447500
          CHANNELS 3 Xrotation Yrotation Zrotation
          End Site
          {
            OFFSET 0.198873 2.218955 -2.234250
          }
        }
      }
      JOINT LeftShoulder
      {
        OFFSET 17.248308 -1.208605 -0.261267
        CHANNELS 3 Xrotation Yrotation Zrotation
        JOINT LeftArm
        {
          OFFSET 7.635523 -21.435821 1.774202
          CHANNELS 3 Xrotation Yrotation Zrotation
          JOINT LeftForeArm
          {
            OFFSET 7.643843 -21.327462 -9.147581
            CHANNELS 3 Xrotation Yrotation Zrotation
            JOINT LeftHand
            {
              OFFSET 0.473402 -5.275506 -2.178749
              CHANNELS 3 Xrotation Yrotation Zrotation
              End Site
              {
                OFFSET 0.142021 -1.582652 -0.653625
              }
            }
          }
        }
      }
      JOINT RightShoulder
      {
        OFFSET -17.248308 1.208605 0.261267
        CHANNELS 3 Xrotation Yrotation Zrotation
        JOINT RightArm
        {
          OFFSET -12.133127 -21.363330 5.693170
          CHANNELS 3 Xrotation Yrotation Zrotation
          JOINT RightForeArm
          {
            OFFSET -7.740244 -22.047532 -5.230031
            CHANNELS 3 Xrotation Yrotation Zrotation
            JOINT RightHand
            {
              OFFSET -0.480044 -5.557554 -1.525311
              CHANNELS 3 Xrotation Yrotation Zrotation
              End Site
              {
                OFFSET -0.144013 -1.667266 -0.457593
              }
            }
          }
        }
      }
    }
  }
  JOINT LeftUpLeg
  {
    OFFSET 11.699587 -0.675443 -0.599665
    CHANNELS 3 Xrotation Yrotation Zrotation
    JOINT LeftLeg
    {
      OFFSET -6.527727 -38.483662 1.737457
      CHANNELS 3 Xrotation Yrotation Zrotation
      JOINT LeftFoot
      {
        OFFSET 3.065902 -35.809878 12.679608
        CHANNELS 3 Xrotation Yrotation Zrotation
        End Site
        {
          OFFSET 0.919771 -10.742963 3.803882
        }
      }
    }
  }
  JOINT RightUpLeg
  {
    OFFSET -11.699587 0.675443 0.599665
    CHANNELS 3 Xrotation Yrotation Zrotation
    JOINT RightLeg
    {
      OFFSET -1.173808 -37.981520 -1.210152
      CHANNELS 3 Xrotation Yrotation Zrotation
      JOINT RightFoot
      {
        OFFSET -7.846448 -39.021816 7.691272
        CHANNELS 3 Xrotation Yrotation Zrotation
        End Site
        {
          OFFSET -2.353934 -11.706545 2.307382
        }
      }
    }
  }
}
MOTION
Frames: 14
Frame Time: 0.083333
-3.569313 60.000000 -11.555628 -0.829474 -0.343116 -1.073928 -0.829474 -0.343116 -1.073928 0.000000 0.000000 0.000000 -4.032813 8.806489 7.760186 5.000000 0.000000 0.000000 6.165846 2.642407 21.899379 0.735350 1.014283 -2.070306 3.187726 1.660814 -1.931985 0.000000 0.000000 0.000000 13.872593 -12.581044 -56.727975 26.687413 1.083892 -8.410393 20.893941 3.231104 -3.961529 0.000000 0.000000 0.000000 1.514462 -0.204070 1.341369 -1.566937 -0.799495 -1.791966 0.000000 0.000000 0.000000 13.060861 1.091311 -10.176552 -0.995304 0.839929 3.076966 0.000000 0.000000 0.000000
-3.336961 60.000000 -10.516918 2.082391 -0.439021 -0.932379 2.082391 -0.439021 -0.932379 0.000000 0.000000 0.000000 -2.065556 8.758479 8.157129 5.000000 0.000000 0.000000 3.844617 2.272122 21.440631 -1.550374 0.518027 -1.629970 2.329182 1.165981 -1.392798 0.000000 0.000000 0.000000 19.628490 -12.486444 -54.885972 27.549133 -1.025542 -3.842349 9.779894 -1.475277 1.438887 0.000000 0.000000 0.000000 0.050933 0.114730 2.763628 -1.040353 -0.455887 -0.991708 0.000000 0.000000 0.000000 11.319674 0.944400 -9.853180 -0.972206 0.845325 3.124396 0.000000 0.000000 0.000000
-3.174440 60.000000 -9.686736 4.360154 -0.551519 -0.923440 4.360154 -0.551519 -0.923440 0.000000 0.000000 0.000000 -2.505848 8.827659 8.122605 5.000000 0.000000 0.000000 2.404672 1.963205 20.134802 -2.357295 0.265319 -1.244802 1.781367 0.920266 -1.113602 0.000000 0.000000 0.000000 18.686159 -11.979723 -49.263572 19.852388 -1.761346 -0.976666 6.511598 -1.594422 2.034437 0.000000 0.000000 0.000000 0.413243 0.092255 3.989265 -0.061678 0.021203 0.086025 0.000000 0.000000 0.000000 10.064868 0.853101 -9.685486 -1.478275 1.086408 3.705410 0.000000 0.000000 0.000000
-2.996210 60.000000 -8.809339 6.185287 -0.624136 -0.858439 6.185287 -0.624136 -0.858439 0.000000 0.000000 0.000000 -2.820811 8.526716 7.773694 5.000000 0.000000 0.000000 0.110810 1.388912 17.393226 -5.144065 -0.241587 -0.801885 -0.129135 0.473385 -0.696244 0.000000 0.000000 0.000000 11.632121 -10.095644 -36.994846 11.302730 -0.921509 -1.092161 2.688849 -0.659926 0.942142 0.000000 0.000000 0.000000 1.383357 -0.082746 4.606089 0.760492 0.362560 0.856746 0.000000 0.000000 0.000000 9.142306 0.796820 -9.615026 -1.878014 1.300184 4.247949 0.000000 0.000000 0.000000
-2.814467 60.000000 -8.096789 6.395601 -0.565738 -0.626774 6.395601 -0.565738 -0.626774 0.000000 0.000000 0.000000 -3.871270 8.000640 7.055852 5.000000 0.000000 0.000000 -0.257730 1.015779 13.491407 -5.483635 -0.426881 -0.409735 -0.574377 0.080701 -0.164535 0.000000 0.000000 0.000000 5.577338 -6.726697 -20.631818 3.815643 0.394076 -3.164484 1.787641 0.440547 -1.070982 0.000000 0.000000 0.000000 1.259484 -0.058389 4.563812 0.609244 0.482510 1.237128 0.000000 0.000000 0.000000 6.307694 0.623038 -9.352436 -2.098754 1.487032 4.856084 0.000000 0.000000 0.000000
-2.685215 60.000000 -7.476388 5.830029 -0.460168 -0.372935 5.830029 -0.460168 -0.372935 0.000000 0.000000 0.000000 -4.858767 7.673179 6.552317 5.000000 0.000000 0.000000 -0.389022 0.821139 11.432194 -5.558208 -0.434276 -0.409145 -1.118817 -0.068325 0.008736 0.000000 0.000000 0.000000 2.729141 -4.143071 -11.881576 0.761754 1.145222 -5.220568 2.727747 1.068191 -2.380634 0.000000 0.000000 0.000000 0.826079 0.026961 4.420830 0.856118 0.507569 1.257714 0.000000 0.000000 0.000000 4.904433 0.517639 -8.812039 -1.563859 1.366861 4.917238 0.000000 0.000000 0.000000
-2.739759 60.000000 -7.035746 4.211622 -0.372194 -0.363594 4.211622 -0.372194 -0.363594 0.000000 0.000000 0.000000 -6.628740 7.545283 6.089663 5.000000 0.000000 0.000000 -0.898422 0.702189 11.380349 -5.112474 -0.300417 -0.632948 -1.202719 0.033537 -0.149242 0.000000 0.000000 0.000000 1.167346 -2.679744 -8.653670 1.762768 1.246125 -5.874844 2.955189 1.839640 -3.879320 0.000000 0.000000 0.000000 0.573726 0.075249 4.293137 0.749618 0.612754 1.588911 0.000000 0.000000 0.000000 3.517962 0.370299 -7.865244 -0.194065 1.051472 5.059234 0.000000 0.000000 0.000000
-2.963527 60.000000 -6.617613 0.551953 -0.318249 -0.788584 0.551953 -0.318249 -0.788584 0.000000 0.000000 0.000000 -10.636527 7.563239 5.345682 5.000000 0.000000 0.000000 -2.992245 0.426521 13.473588 -4.329683 0.021854 -1.232477 -0.605124 0.387148 -0.611087 0.000000 0.000000 0.000000 -0.962874 -0.551252 -4.078860 2.484877 1.361218 -6.592287 3.204535 2.881495 -5.909641 0.000000 0.000000 0.000000 2.314797 -0.285627 4.344372 1.425467 0.850058 2.149592 0.000000 0.000000 0.000000 7.976606 0.465278 -7.087239 0.609862 0.989607 5.740287 0.000000 0.000000 0.000000
-3.100779 60.000000 -5.753372 -3.396129 -0.363956 -1.454089 -3.396129 -0.363956 -1.454089 0.000000 0.000000 0.000000 -12.842749 6.508956 4.092092 5.000000 0.000000 0.000000 -5.753025 0.364524 18.351858 -3.495120 0.518817 -2.140348 1.266362 0.892210 -1.138551 0.000000 0.000000 0.000000 -1.007024 -0.000183 -2.081122 -2.145854 1.685139 -7.193225 2.949980 3.313925 -6.764228 0.000000 0.000000 0.000000 3.651340 -0.564938 4.327357 1.797904 1.127024 2.891489 0.000000 0.000000 0.000000 11.798990 0.540301 -6.685662 -0.223080 1.248296 5.973248 0.000000 0.000000 0.000000
-2.993356 60.000000 -4.301647 -4.389964 -0.788682 -2.628183 -4.389964 -0.788682 -2.628183 0.000000 0.000000 0.000000 -12.237345 3.598150 1.905080 5.000000 0.000000 0.000000 -4.804356 1.539473 27.017776 0.306134 1.753705 -3.745186 3.295636 1.529659 -1.743453 0.000000 0.000000 0.000000 0.247401 -0.658878 -1.987075 -2.130459 1.709934 -7.329579 3.773305 3.617856 -7.211886 0.000000 0.000000 0.000000 3.592360 -0.553069 4.302187 0.886983 1.474426 4.041987 0.000000 0.000000 0.000000 11.071330 0.499532 -6.532006 -0.852003 1.373091 5.799778 0.000000 0.000000 0.000000
-2.742599 60.000000 -1.894065 -5.259086 -1.388465 -4.184548 -5.259086 -1.388465 -4.184548 0.000000 0.000000 0.000000 -13.409664 0.533429 -0.631230 5.000000 0.000000 0.000000 -2.796962 2.502319 36.098848 2.149209 3.043557 -5.683478 3.529358 2.985248 -3.576168 0.000000 0.000000 0.000000 0.536950 -0.837172 -2.072408 -0.630898 1.563637 -6.873701 4.055459 3.957870 -7.792838 0.000000 0.000000 0.000000 3.260852 -0.487585 4.128883 -1.135076 1.632770 4.754463 0.000000 0.000000 0.000000 11.261313 0.498635 -6.485409 -2.376402 1.661203 5.348331 0.000000 0.000000 0.000000
-2.599815 60.000000 0.547329 -5.587606 -1.865585 -5.358746 -5.587606 -1.865585 -5.358746 0.000000 0.000000 0.000000 -15.042090 -1.343151 -2.211667 5.000000 0.000000 0.000000 1.992199 3.287496 45.126212 4.909979 4.233937 -6.975468 3.507784 4.723653 -5.827219 0.000000 0.000000 0.000000 0.834365 -1.278005 -3.165901 0.852591 1.417530 -6.460831 4.208450 3.898876 -7.643542 0.000000 0.000000 0.000000 3.282038 -0.496454 3.780029 -3.196203 1.471835 4.548674 0.000000 0.000000 0.000000 12.059021 0.535984 -6.620217 -4.892627 2.125965 4.617010 0.000000 0.000000 0.000000
-2.450548 60.000000 1.959072 -5.712472 -2.388370 -6.639593 -5.712472 -2.388370 -6.639593 0.000000 0.000000 0.000000 -15.224402 -2.422047 -3.048970 5.000000 0.000000 0.000000 4.541546 3.334447 51.598303 5.044319 4.258163 -6.992041 2.278414 5.901963 -7.569402 0.000000 0.000000 0.000000 0.380789 -1.720976 -5.954033 0.233946 1.300402 -5.799490 2.893685 3.338345 -6.805019 0.000000 0.000000 0.000000 4.717353 -0.785772 3.203737 -3.894703 1.193607 3.883311 0.000000 0.000000 0.000000 13.472298 0.513680 -6.132817 -6.061808 2.219293 3.841382 0.000000 0.000000 0.000000
-2.278582 60.000000 1.698671 -5.002632 -2.623656 -7.220923 -5.002632 -2.623656 -7.220923 0.000000 0.000000 0.000000 -14.241193 -2.986895 -3.447279 5.000000 0.000000 0.000000 10.740874 2.602489 55.318682 9.612903 4.368211 -5.768839 4.213872 6.181332 -7.393160 0.000000 0.000000 0.000000 1.041997 -2.865761 -9.575114 -0.810448 1.184508 -5.020588 1.496093 2.680556 -5.693605 0.000000 0.000000 0.000000 8.935711 -1.616638 2.947692 -1.850857 0.979356 3.058929 0.000000 0.000000 0.000000 12.200605 0.447194 -5.543745 -8.140957 2.669461 3.647859 0.000000 0.000000 0.000000
